<svg width="20" height="20" viewBox="0 0 20 20" fill="none" xmlns="http://www.w3.org/2000/svg">
<g clip-path="url(#clip0_509_1720)">
<path fill-rule="evenodd" clip-rule="evenodd" d="M14.2 0H5.8C4.26174 0 2.78649 0.61107 1.69878 1.69878C0.61107 2.78649 0 4.26174 0 5.8V14.2C0 17.4 2.6 20 5.8 20H14.2C15.7383 20 17.2135 19.3889 18.3012 18.3012C19.3889 17.2135 20 15.7383 20 14.2V5.8C20 2.6 17.4 0 14.2 0ZM3.05442 3.05442C3.72955 2.37928 4.64522 2 5.6 2H14.4C16.39 2 18 3.61 18 5.6V14.4C18 15.3548 17.6207 16.2705 16.9456 16.9456C16.2705 17.6207 15.3548 18 14.4 18H5.6C3.61 18 2 16.39 2 14.4V5.6C2 4.64522 2.37928 3.72955 3.05442 3.05442ZM11.1998 5.00233C10.8744 5.00283 10.5485 5.00333 10.2211 5.00833C10.2133 6.05517 10.2136 7.10201 10.2139 8.14987C10.2141 8.77864 10.2143 9.40778 10.2127 10.0375C10.2116 10.2338 10.212 10.4298 10.2123 10.6257C10.2133 11.174 10.2143 11.7213 10.1836 12.2708C10.1797 12.4238 10.1019 12.5584 10.0267 12.6883C10.022 12.6964 10.0174 12.7045 10.0127 12.7125C9.77108 13.1083 9.32525 13.3792 8.85858 13.3833C8.15858 13.4458 7.50025 12.8708 7.40025 12.1875C7.3996 12.1526 7.39845 12.1174 7.3973 12.0822C7.39103 11.8905 7.38467 11.6962 7.45858 11.5167C7.56275 11.2208 7.76275 10.9583 8.02525 10.7875C8.38775 10.5375 8.87108 10.5 9.28358 10.6333C9.28358 10.369 9.28817 10.1048 9.29276 9.84048C9.29889 9.4881 9.30501 9.13571 9.30025 8.78333C8.39608 8.6125 7.42941 8.9 6.73775 9.5C6.12941 10.0167 5.73775 10.775 5.66275 11.5667C5.65441 11.7708 5.65858 11.9792 5.66691 12.1875C5.75441 13.1625 6.34608 14.0708 7.18775 14.5667C7.69608 14.8667 8.29191 15.0292 8.88775 14.9958C9.85858 14.9792 10.8044 14.4583 11.3502 13.6583C11.6877 13.1792 11.8794 12.6 11.9127 12.0167C11.9206 11.2589 11.9202 10.4995 11.9199 9.73944C11.9197 9.28338 11.9195 8.82711 11.9211 8.37083C12.1377 8.5125 12.3586 8.65 12.5961 8.75833C13.1419 9.01667 13.7461 9.14167 14.3461 9.1625V7.48333C13.7044 7.4125 13.0461 7.2 12.5794 6.7375C12.1127 6.2875 11.8836 5.6375 11.8502 5C11.6335 5.00167 11.4168 5.002 11.1998 5.00233Z" fill="white"/>
</g>
<defs>
<clipPath id="clip0_509_1720">
<rect width="20" height="20" fill="white"/>
</clipPath>
</defs>
</svg>
