<svg width="129" height="70" viewBox="0 0 129 70" fill="none" xmlns="http://www.w3.org/2000/svg">
<path fill-rule="evenodd" clip-rule="evenodd" d="M26.5459 51.1276C27.2887 55.9047 25.3932 61.4126 21.0495 63.8831C19.4923 64.7691 17.674 65.2715 15.7939 65.4279C15.6496 65.368 15.5118 65.2878 15.3906 65.1508C14.9228 64.6222 14.5895 63.7117 14.7424 63.0002C14.8001 62.7327 14.9367 62.5401 15.114 62.3756C16.0893 62.2537 17.0249 61.9638 17.8651 61.4699C17.9327 61.441 17.9947 61.4012 18.048 61.3522C18.299 61.1928 18.5435 61.02 18.7745 60.8213C21.863 58.1636 22.949 53.2806 22.237 49.4031C21.5148 45.4691 18.9052 42.1626 15.3579 40.4089C15.5901 40.033 15.851 39.6742 16.1396 39.3409C16.4618 38.9684 16.8149 38.614 17.1929 38.2985C17.2384 38.2606 17.2864 38.2181 17.3362 38.1739L17.3363 38.1738L17.3493 38.1623C17.371 38.1428 17.393 38.1234 17.4153 38.1037C17.4405 38.1283 17.4668 38.1528 17.4982 38.175C21.8651 41.2336 25.7022 45.7037 26.5459 51.1276ZM11.6688 68.3459C8.91084 67.7745 6.63889 65.5158 6.80632 62.5674C7.11252 57.1798 15.2497 55.8686 16.9777 61.0249C16.9552 60.9962 16.9324 60.9682 16.9065 60.9439C16.8241 60.8666 16.7242 60.8097 16.6052 60.7609C16.11 60.5585 15.5155 60.6536 15.0665 60.9268C13.9953 61.5791 13.518 62.9736 13.8288 64.1677C14.135 65.3428 14.9463 66.6329 16.3135 66.5957C16.4008 66.5931 16.4834 66.5633 16.558 66.5202C16.8559 66.5253 17.13 66.4536 17.4032 66.3565C16.3746 68.2413 13.7113 68.7692 11.6688 68.3459ZM5.55409 62.4369C5.52721 62.4145 5.49983 62.3927 5.47245 62.371L5.46556 62.3654L5.46535 62.3653C5.42505 62.3329 5.38488 62.3007 5.34657 62.2666C1.26765 58.6367 1.44063 52.9951 3.45851 48.3526C3.76871 49.0956 4.14706 49.7926 4.6278 50.4015C2.83347 53.5945 3.95557 57.4213 6.61451 59.7359C6.07737 60.5183 5.7021 61.4253 5.55409 62.4369ZM5.29384 51.1158C9.04413 54.4885 14.4908 49.2449 17.1973 46.6392L17.1973 46.6392L17.2111 46.626C17.8969 45.9656 18.579 45.2945 19.2577 44.6172C22.1744 48.682 22.6912 54.3051 19.3116 58.5936C18.8944 59.1229 18.4146 59.5525 17.8907 59.8949C16.0576 55.6058 10.6715 55.7599 7.63023 58.5663C5.39405 56.722 4.12764 54.0044 5.29384 51.1158ZM36.1531 3.4477C32.6462 -1.41755 27.01 -0.20202 22.0653 1.4774C16.1806 3.47576 10.259 6.75008 5.81218 11.1416C5.43475 11.5145 5.08538 11.9016 4.75761 12.2998C4.83099 12.7569 4.89144 13.2146 4.93552 13.6735C7.38747 10.705 10.8532 8.47751 14.0147 6.44561C14.0563 6.41878 14.0681 6.37719 14.0598 6.34017C15.0875 5.78222 16.1168 5.26715 17.1171 4.79587C19.4714 3.68673 21.9262 2.7716 24.4312 2.0656C27.1405 1.30192 30.2281 0.528971 32.8046 2.09489C37.821 5.14408 37.2024 11.8565 35.8381 16.7067C33.3303 25.6214 27.7448 33.2584 21.4747 39.937C21.1608 39.639 20.8423 39.3466 20.5152 39.0642C21.611 38.2305 22.5639 37.1285 23.3988 36.0628C23.5239 35.9034 23.656 35.7391 23.7915 35.571C24.5572 34.6204 25.4302 33.5364 25.7082 32.4115C25.7267 32.3366 25.6416 32.2977 25.5873 32.3412C24.8965 32.8924 24.3419 33.6512 23.7917 34.4039L23.7888 34.408C23.45 34.8713 23.1128 35.3327 22.7464 35.7414C22.3683 36.1631 21.971 36.5749 21.573 36.9871L21.5691 36.9912L21.569 36.9913C21.0419 37.5375 20.5139 38.0846 20.0283 38.658L20.0072 38.6406L19.9985 38.6334L19.9983 38.6333C19.8607 38.5198 19.7229 38.4062 19.5833 38.2955C19.9601 37.7831 19.9305 37.0665 19.2222 36.7343C17.81 36.0722 16.003 38.0316 15.2571 38.9805C14.5957 39.8225 13.1538 41.7839 13.7875 42.9359C14.2956 43.8596 15.563 43.4154 15.5254 42.4184C15.5229 42.352 15.4331 42.3412 15.4119 42.4029C15.0443 43.0765 14.5093 42.9593 14.5621 42.1244L14.6527 41.8394C14.657 41.6354 14.8206 41.3502 14.9535 41.1185L14.954 41.1177L14.9546 41.1166C14.9941 41.0478 15.0308 40.9839 15.0597 40.9282L15.0862 40.8806C16.2506 41.5287 17.2901 42.3541 18.1806 43.3058C17.2074 44.2637 16.2167 45.2029 15.192 46.1044C15.0574 46.2228 14.9196 46.3449 14.7787 46.4699C13.0788 47.9767 10.9396 49.8729 8.71903 50.2419C5.98757 50.6955 5.08061 47.5381 4.46327 45.3889L4.45127 45.3471L4.45123 45.347L4.45112 45.3466C4.40385 45.1822 4.35823 45.0235 4.31357 44.8735C3.52942 42.2364 2.8529 39.5699 2.30403 36.874C1.76441 34.2216 1.31297 31.439 1.15016 28.6474C0.797711 29.1322 0.414429 29.5884 0 30.0106C0.0175762 31.3141 0.087265 32.6151 0.224175 33.9015C0.564289 37.1002 1.21893 40.2546 2.02497 43.3659C2.11905 43.7287 2.21047 44.1049 2.30374 44.4887L2.3038 44.489L2.30387 44.4893C2.54684 45.489 2.80239 46.5404 3.15014 47.5439C1.11748 51.2009 0.378351 55.7412 2.14029 59.6462C2.89853 61.3265 4.07646 62.7038 5.49458 63.7901C5.7166 67.0141 8.42889 69.564 11.6635 69.949C14.3033 70.2631 17.5371 69.1319 18.1569 66.4247C20.8019 65.8112 23.2244 64.4416 24.9737 62.2023C27.6481 58.7792 28.4959 54.121 27.52 49.9222C26.7383 46.5596 24.9536 43.6065 22.6412 41.1114C28.5658 34.7171 33.7778 27.553 36.5574 19.2676C38.2341 14.2691 39.4792 8.06279 36.1531 3.4477ZM19.5216 8.39469C15.5991 9.83969 11.6765 12.2662 8.9358 15.4686C7.99533 16.5682 7.1495 18.2782 7.27038 19.7694C7.31633 20.3385 7.54112 20.8542 7.99286 21.2212C8.3154 21.4833 8.69028 21.5665 9.06482 21.6496L9.06483 21.6496C9.46265 21.7378 9.86006 21.826 10.1939 22.1283C11.9373 23.7072 11.9824 27.4211 11.5837 29.5128C11.1313 31.885 9.99932 34.1284 8.39466 35.9311C8.16894 36.1847 8.46896 36.6512 8.78009 36.4306C12.0773 34.0891 13.6095 30.0518 13.1334 26.0524C12.9271 24.3186 12.4107 22.2601 10.937 21.1648C10.6712 20.9672 10.2731 20.8346 9.86454 20.6986C9.14766 20.46 8.39827 20.2105 8.27315 19.5795C8.04713 18.4395 9.13501 16.8112 9.84238 16.0198C10.9222 14.8104 12.2121 13.6581 13.6274 12.6307C13.8971 12.4952 14.1719 12.3479 14.4508 12.1982L14.4509 12.1982L14.4509 12.1982L14.4523 12.1975C16.1023 11.3123 17.8992 10.3485 19.6681 11.2893C21.4208 12.2214 22.2025 14.4163 22.5768 16.2397C22.9915 18.2584 22.9391 20.3863 22.4877 22.393C22.2207 23.58 21.75 24.6614 21.2777 25.7465L21.2761 25.7503L21.276 25.7504C20.9989 26.3871 20.7213 27.025 20.484 27.6867C20.3869 27.9578 20.7563 28.1308 20.9432 27.9541C24.3525 24.7257 24.5096 18.0703 22.9706 13.9554C22.3267 12.2334 21.1704 10.53 19.3101 10.0078C19.0443 9.93317 18.7773 9.88966 18.5108 9.86622C19.9435 9.26878 21.4122 8.83451 22.8623 8.62324C25.5084 8.23739 28.2707 8.89313 29.6492 11.3899C31.1393 14.089 30.242 17.1187 29.2126 19.8009C29.1777 19.8925 29.3273 19.9551 29.371 19.8678C30.9598 16.7141 32.4223 12.1175 29.5755 9.1812C26.9964 6.52155 22.628 7.25039 19.5216 8.39469ZM10.7391 67.6184C10.8661 67.6681 10.9824 67.6908 11.0857 67.6908C11.5282 67.6908 11.7314 67.2725 11.5041 66.7696C11.4486 66.6466 11.3774 66.5318 11.2938 66.4266C11.0077 66.0659 10.576 65.8168 10.1289 65.7282C10.0508 65.7129 9.96232 65.7037 9.87198 65.7037C9.55654 65.7037 9.21704 65.817 9.21426 66.1832C9.20932 66.7791 10.2599 67.4305 10.7391 67.6184ZM127.824 23.7244C127.824 25.1349 127.56 26.343 127.032 27.3487C126.508 28.3501 125.792 29.1172 124.884 29.6499C123.981 30.1825 122.956 30.4489 121.809 30.4489C120.663 30.4489 119.636 30.1825 118.729 29.6499C117.825 29.1129 117.109 28.3437 116.581 27.3423C116.057 26.3366 115.795 25.1307 115.795 23.7244C115.795 22.3139 116.057 21.108 116.581 20.1065C117.109 19.1009 117.825 18.3317 118.729 17.799C119.636 17.2663 120.663 17 121.809 17C122.956 17 123.981 17.2663 124.884 17.799C125.792 18.3317 126.508 19.1009 127.032 20.1065C127.56 21.108 127.824 22.3139 127.824 23.7244ZM125.44 23.7244C125.44 22.7315 125.285 21.8942 124.974 21.2124C124.667 20.5263 124.241 20.0085 123.695 19.6591C123.15 19.3054 122.521 19.1286 121.809 19.1286C121.098 19.1286 120.469 19.3054 119.924 19.6591C119.378 20.0085 118.95 20.5263 118.639 21.2124C118.332 21.8942 118.179 22.7315 118.179 23.7244C118.179 24.7173 118.332 25.5568 118.639 26.2429C118.95 26.9247 119.378 27.4425 119.924 27.7962C120.469 28.1456 121.098 28.3203 121.809 28.3203C122.521 28.3203 123.15 28.1456 123.695 27.7962C124.241 27.4425 124.667 26.9247 124.974 26.2429C125.285 25.5568 125.44 24.7173 125.44 23.7244ZM113.549 17.179H111.178V25.5334C111.178 26.0788 111.059 26.5646 110.82 26.9908C110.581 27.4169 110.24 27.7514 109.797 27.9943C109.358 28.233 108.838 28.3523 108.238 28.3523C107.637 28.3523 107.117 28.233 106.678 27.9943C106.239 27.7514 105.898 27.4169 105.655 26.9908C105.417 26.5646 105.297 26.0788 105.297 25.5334V17.179H102.926V25.7315C102.926 26.669 103.145 27.4936 103.584 28.2053C104.023 28.9169 104.641 29.473 105.438 29.8736C106.235 30.2699 107.168 30.468 108.238 30.468C109.303 30.468 110.234 30.2699 111.031 29.8736C111.828 29.473 112.446 28.9169 112.885 28.2053C113.328 27.4936 113.549 26.669 113.549 25.7315V17.179ZM91.5815 30.2699H89.0502L93.6589 17.179H96.5865L101.202 30.2699H98.6703L97.5857 27.0419H92.6641L91.5815 30.2699ZM96.9457 25.1371L95.1738 19.8636H95.0716L93.3029 25.1371H96.9457ZM80.3459 17.179H77.6676L82.4297 25.3864V30.2699H84.7947V25.3864L89.5568 17.179H86.8785L83.6761 22.9702H83.5483L80.3459 17.179ZM67.3652 30.2699V17.179H72.2743C73.28 17.179 74.1237 17.3537 74.8056 17.7031C75.4917 18.0526 76.0094 18.5426 76.3588 19.1733C76.7125 19.7997 76.8894 20.5305 76.8894 21.3658C76.8894 22.2053 76.7104 22.9339 76.3524 23.5518C75.9987 24.1655 75.4767 24.6406 74.7864 24.9773C74.7055 25.0162 74.6225 25.0529 74.5373 25.0872L77.3688 30.2699H74.7225L72.1498 25.4759H69.7367V30.2699H67.3652ZM69.7367 19.1605V23.5071H71.9228C72.5108 23.5071 72.9924 23.4261 73.3674 23.2642C73.7424 23.098 74.0193 22.8572 74.1983 22.5419C74.3816 22.2223 74.4732 21.8303 74.4732 21.3658C74.4732 20.9013 74.3816 20.505 74.1983 20.1768C74.0151 19.8445 73.736 19.593 73.361 19.4226C72.986 19.2479 72.5023 19.1605 71.91 19.1605H69.7367ZM53.4897 30.2699H56.021L57.1036 27.0419H62.0251L63.1097 30.2699H65.641L61.0259 17.179H58.0984L53.4897 30.2699ZM59.6133 19.8636L61.3851 25.1371H57.7424L59.511 19.8636H59.6133ZM46.4361 30.2699H42V17.179H46.5256C47.8253 17.179 48.9418 17.441 49.875 17.9652C50.8125 18.4851 51.5327 19.233 52.0355 20.2088C52.5384 21.1847 52.7898 22.3523 52.7898 23.7116C52.7898 25.0753 52.5362 26.2472 52.0291 27.2273C51.5263 28.2074 50.7997 28.9595 49.8494 29.4837C48.9034 30.0078 47.7656 30.2699 46.4361 30.2699ZM44.3714 28.218H46.321C47.233 28.218 47.9936 28.0518 48.603 27.7195C49.2124 27.3828 49.6705 26.8821 49.9773 26.2173C50.2841 25.5483 50.4375 24.7131 50.4375 23.7116C50.4375 22.7102 50.2841 21.8793 49.9773 21.2187C49.6705 20.554 49.2166 20.0575 48.6158 19.7294C48.0192 19.397 47.2777 19.2308 46.3913 19.2308H44.3714V28.218ZM94.9677 50.3751C95.5852 51.1737 96.4701 51.5732 97.6222 51.5732C98.2698 51.5732 98.8195 51.4494 99.2714 51.2023C99.7307 50.9488 100.066 50.5875 100.277 50.1184L100.593 51.4115H101.824V42.6259H98.0625V44.1474H99.6779V46.3246C99.6779 47.624 99.5611 48.5527 99.3278 49.1105C99.1019 49.6619 98.665 49.9377 98.0175 49.9377C97.3398 49.9377 96.8953 49.6619 96.6847 49.1105C96.4811 48.559 96.3796 47.6432 96.3796 46.3628V39.3268C96.3796 38.154 96.5038 37.3365 96.7524 36.8736C97.0008 36.4109 97.4451 36.1796 98.0852 36.1796C98.6877 36.1796 99.0831 36.376 99.2714 36.769C99.467 37.1558 99.5648 37.7547 99.5648 38.5662V40.7434H101.824V39.4503C101.824 38.7149 101.783 38.0432 101.7 37.4345C101.617 36.8262 101.448 36.3031 101.192 35.8657C100.936 35.4285 100.559 35.0924 100.062 34.858C99.5725 34.617 98.9136 34.4967 98.0852 34.4967C97.2871 34.4967 96.6243 34.614 96.0973 34.8485C95.5776 35.0829 95.1671 35.419 94.866 35.8562C94.5649 36.2936 94.3503 36.8134 94.2221 37.4156C94.1016 38.0115 94.0413 38.677 94.0413 39.4124V46.4292C94.0413 48.261 94.3503 49.5764 94.9677 50.3751ZM82.8138 51.4115V34.6774H84.5758L89.1845 46.0678L88.9472 41.2283V34.6774H91.0143V51.4115H89.2973L84.8355 39.9257L84.9713 44.1474V51.4115H82.8138ZM77.2111 34.6774V51.4115H79.5492V34.6774H77.2111ZM71.0662 51.6016C70.2604 51.6016 69.6053 51.4811 69.1006 51.2403C68.5962 50.993 68.2084 50.6444 67.9374 50.1945C67.6661 49.7443 67.4778 49.215 67.3726 48.6066C67.2746 47.9918 67.2258 47.3135 67.2258 46.5719V44.9459H69.4961V46.648C69.4961 47.8206 69.5939 48.6605 69.7898 49.1676C69.9931 49.6682 70.426 49.9187 71.0888 49.9187C71.5481 49.9187 71.8832 49.8299 72.0941 49.6525C72.3125 49.4686 72.4517 49.1771 72.512 48.7778C72.5722 48.3783 72.6025 47.8523 72.6025 47.1995C72.6025 46.4514 72.4443 45.8081 72.1279 45.2693C71.8192 44.7306 71.3712 44.2138 70.7838 43.7194L69.4848 42.6259C69.1083 42.3028 68.7392 41.9509 68.3777 41.5706C68.0165 41.1839 67.7151 40.7467 67.4741 40.2586C67.2408 39.7705 67.124 39.2127 67.124 38.5852C67.124 37.742 67.2295 37.0131 67.4404 36.3982C67.6511 35.7833 68.0352 35.308 68.5923 34.9721C69.1497 34.6362 69.9404 34.468 70.9644 34.468C71.7704 34.468 72.4142 34.5853 72.8962 34.8199C73.3855 35.0544 73.7507 35.3903 73.9917 35.8278C74.2403 36.2587 74.4022 36.7723 74.4773 37.3681C74.5604 37.9638 74.6018 38.6231 74.6018 39.3457V40.3347H72.3652V39.2127C72.3652 38.5345 72.3312 37.9703 72.2634 37.5201C72.2033 37.0637 72.0752 36.7216 71.8795 36.4933C71.6836 36.2652 71.3786 36.1511 70.9644 36.1511C70.5879 36.1511 70.2792 36.2303 70.0382 36.3887C69.8048 36.5409 69.6353 36.7785 69.5299 37.1019C69.4246 37.4251 69.3719 37.8403 69.3719 38.3474C69.3719 38.791 69.4357 39.1588 69.5639 39.4503C69.6917 39.7355 69.8839 40.0018 70.1399 40.2491C70.4036 40.4961 70.7234 40.7878 71.1002 41.1237L72.4556 42.3312C73.1709 42.9588 73.7546 43.6623 74.2063 44.4421C74.6656 45.2154 74.8955 46.1155 74.8955 47.1423C74.8955 48.0679 74.7861 48.8634 74.5678 49.5289C74.3568 50.1945 73.9766 50.7078 73.4269 51.0691C72.8772 51.4242 72.0902 51.6016 71.0662 51.6016ZM57.2404 34.6774V51.4115H59.5785V43.3296L60.9679 43.3963C61.4876 43.4215 61.8641 43.5008 62.0974 43.6338C62.3384 43.7606 62.489 43.9919 62.5493 44.328C62.6171 44.6577 62.6509 45.1393 62.6509 45.7731V47.5988C62.6509 48.1502 62.6548 48.6511 62.6622 49.101C62.6698 49.5447 62.6812 49.9282 62.6962 50.2514C62.7112 50.5748 62.7299 50.8345 62.7526 51.0312C62.7753 51.2276 62.8016 51.3543 62.8317 51.4115H65.1585C65.121 51.3291 65.0907 51.1991 65.0683 51.0217C65.0456 50.8378 65.0269 50.6287 65.0116 50.3941C65.0096 50.3295 65.0075 50.2647 65.0055 50.1997C65 50.0285 64.9946 49.8556 64.9892 49.6809C64.9816 49.4401 64.9779 49.2183 64.9779 49.0154V48.5495C64.9779 47.4213 64.9478 46.4863 64.8874 45.7447C64.8347 44.9968 64.7406 44.4009 64.6051 43.9572C64.4695 43.5135 64.2813 43.1869 64.0403 42.9778C63.807 42.7687 63.5093 42.6387 63.1478 42.588C63.8634 42.4106 64.3453 42.0176 64.5937 41.4089C64.8423 40.8006 64.9665 39.9796 64.9665 38.9465C64.9665 37.9893 64.8874 37.197 64.7292 36.5694C64.5787 35.9355 64.2512 35.4634 63.7466 35.1527C63.242 34.8358 62.4626 34.6774 61.4085 34.6774H57.2404ZM61.0695 41.8843H59.5785V36.2367H61.047C61.5063 36.2367 61.8491 36.3001 62.0748 36.4269C62.3007 36.5536 62.4515 36.8007 62.5267 37.1685C62.6095 37.5296 62.6509 38.0654 62.6509 38.7753V38.8893C62.6509 39.745 62.6095 40.3886 62.5267 40.8195C62.4439 41.2442 62.2857 41.5295 62.0523 41.6752C61.8264 41.8147 61.4987 41.8843 61.0695 41.8843ZM48.7009 51.4115V34.6774H54.6423V36.3126H51.0392V42.0365H54.4504V43.672H51.0392V49.776H54.6877V51.4115H48.7009ZM43.0985 34.6774V51.4115H45.4366V34.6774H43.0985ZM33 51.4115V34.6774H36.9986C37.7893 34.6774 38.4294 34.7882 38.919 35.01C39.416 35.2319 39.7962 35.552 40.0599 35.9705C40.3233 36.3887 40.5004 36.8928 40.5906 37.4822C40.6887 38.0716 40.7375 38.7341 40.7375 39.4693V39.726C40.7375 40.848 40.632 41.7892 40.4213 42.5501C40.2178 43.3107 39.8452 43.8844 39.3029 44.2709C38.7682 44.6512 38.0002 44.8414 36.9986 44.8414H35.3381V51.4115H33ZM35.3381 43.2061H36.7615C37.2208 43.2061 37.5673 43.0983 37.8006 42.8827C38.0342 42.6609 38.1922 42.2963 38.2752 41.7892C38.3654 41.2822 38.4107 40.5944 38.4107 39.726V39.4029C38.4107 38.3251 38.3126 37.5296 38.117 37.0163C37.9211 36.4965 37.4882 36.2367 36.818 36.2367H35.3381V43.2061Z" fill="white"/>
</svg>
