<svg width="80" height="66" viewBox="0 0 80 66" fill="none" xmlns="http://www.w3.org/2000/svg">
<path fillRule="evenodd"  d="M24.8674 47.927C25.5632 52.4051 23.7876 57.5681 19.7186 59.884C18.2598 60.7146 16.5564 61.1855 14.7953 61.3321C14.6601 61.276 14.531 61.2007 14.4174 61.0723C13.9793 60.5769 13.667 59.7234 13.8103 59.0563C13.8643 58.8057 13.9923 58.625 14.1583 58.4709C15.072 58.3566 15.9484 58.0849 16.7355 57.6219C16.7988 57.5948 16.8568 57.5575 16.9068 57.5115C17.1419 57.3621 17.371 57.2001 17.5874 57.0139C20.4806 54.5225 21.4979 49.9452 20.8309 46.3104C20.1545 42.6228 17.7099 39.5232 14.3868 37.8793C14.6043 37.5269 14.8487 37.1906 15.1191 36.8781C15.4209 36.529 15.7517 36.1968 16.1058 35.901C16.1521 35.8624 16.2012 35.8186 16.2523 35.7733C16.2726 35.7551 16.2932 35.7369 16.3141 35.7184C16.3378 35.7414 16.3623 35.7644 16.3918 35.7852C20.4826 38.6523 24.0771 42.8426 24.8674 47.927ZM10.9309 64.0674C8.34741 63.5318 6.21911 61.4145 6.37596 58.6506C6.66279 53.6003 14.2854 52.3712 15.9042 57.2047C15.8831 57.1778 15.8617 57.1516 15.8375 57.1288C15.7603 57.0564 15.6668 57.003 15.5553 56.9573C15.0914 56.7675 14.5344 56.8567 14.1139 57.1128C13.1104 57.7243 12.6632 59.0314 12.9544 60.1508C13.2412 61.2523 14.0012 62.4617 15.282 62.4268C15.3637 62.4244 15.4412 62.3964 15.5111 62.3561C15.7901 62.3608 16.0469 62.2936 16.3028 62.2025C15.3392 63.9694 12.8443 64.4642 10.9309 64.0674ZM5.2029 58.5283C5.17773 58.5073 5.15208 58.4869 5.12642 58.4665C5.08645 58.4344 5.04651 58.4026 5.00851 58.3687C1.18749 54.966 1.34954 49.6776 3.23983 45.3257C3.53042 46.0222 3.88484 46.6756 4.33518 47.2463C2.65431 50.2394 3.70546 53.8267 6.19627 55.9964C5.6931 56.7298 5.34155 57.5801 5.2029 58.5283ZM4.95911 47.9159C8.47228 51.0775 13.5746 46.1621 16.1099 43.7196L16.1229 43.7072C16.7653 43.0881 17.4042 42.459 18.04 41.8241C20.7723 45.6345 21.2564 50.9056 18.0906 54.9257C17.6997 55.4218 17.2503 55.8245 16.7595 56.1454C15.0422 52.1249 9.99678 52.2693 7.14777 54.9001C5.05298 53.1712 3.86665 50.6237 4.95911 47.9159ZM33.8672 3.23187C30.582 -1.32881 25.3022 -0.189374 20.6701 1.38492C15.1575 3.25818 9.61029 6.32753 5.44467 10.4441C5.09111 10.7937 4.76383 11.1565 4.45678 11.5298C4.52552 11.9583 4.58215 12.3873 4.62344 12.8176C6.92036 10.0348 10.167 7.94681 13.1285 6.04211L13.1289 6.04188C13.1678 6.01672 13.1785 5.97797 13.1708 5.94328C14.1335 5.42025 15.0977 4.93742 16.0348 4.49564C18.2402 3.45594 20.5398 2.5981 22.8864 1.93629C25.4244 1.22042 28.3168 0.495857 30.7304 1.96375C35.4296 4.82206 34.8501 11.1143 33.5721 15.6608C31.2228 24.0175 25.9905 31.1764 20.1169 37.4369C19.8228 37.1576 19.5245 36.8835 19.218 36.6188C20.2446 35.8373 21.1371 34.8042 21.9193 33.8052C22.0365 33.6558 22.1602 33.5019 22.2872 33.3442C23.0045 32.4532 23.8223 31.4371 24.0827 30.3825C24.1 30.3123 24.0203 30.2759 23.9694 30.3166C23.3223 30.8334 22.8028 31.5446 22.2874 32.2502C21.9691 32.6859 21.6523 33.1198 21.3081 33.504C20.954 33.8993 20.5817 34.2853 20.2089 34.6717C19.7139 35.185 19.2179 35.6991 18.7619 36.238L18.7422 36.2217L18.7418 36.2213C18.6102 36.1127 18.4787 36.0042 18.3451 35.8982C18.698 35.4179 18.6703 34.7461 18.0068 34.4347C16.6838 33.8141 14.9911 35.6508 14.2924 36.5403C13.6728 37.3296 12.3221 39.1682 12.9157 40.2481C13.3917 41.114 14.5789 40.6976 14.5437 39.763C14.5414 39.7008 14.4573 39.6906 14.4374 39.7485C14.0931 40.3799 13.5919 40.27 13.6413 39.4874L13.7262 39.2203C13.7302 39.0288 13.8839 38.761 14.0085 38.5437C14.0457 38.4789 14.0803 38.4186 14.1075 38.3661L14.1323 38.3214C15.2231 38.929 16.1968 39.7027 17.031 40.5948C16.1194 41.4928 15.1913 42.3732 14.2314 43.2182C14.1053 43.3292 13.9762 43.4437 13.8442 43.5608L13.8437 43.5613C12.2513 44.9738 10.2479 46.7508 8.16773 47.0967C5.60898 47.5219 4.75937 44.5622 4.18106 42.5475L4.18104 42.5473C4.13268 42.379 4.08624 42.217 4.04083 42.0644C3.30625 39.5924 2.67251 37.0928 2.15835 34.5657C1.65285 32.0793 1.22995 29.4709 1.07744 26.854C0.747271 27.3085 0.388224 27.7362 0 28.1319C0.0164649 29.3538 0.0817472 30.5734 0.21 31.7792C0.528609 34.7778 1.14185 37.7347 1.89693 40.6512C1.9851 40.9914 2.07078 41.3442 2.1582 41.7042C2.3858 42.6414 2.62519 43.627 2.95096 44.5676C1.04682 47.9957 0.354428 52.2518 2.00496 55.9123C2.71525 57.4875 3.8187 58.7786 5.14716 59.7969C5.35513 62.819 7.89593 65.2093 10.926 65.5701C13.3989 65.8646 16.4282 64.8042 17.0088 62.2665C19.4866 61.6914 21.7559 60.4075 23.3946 58.3084C25.8999 55.0996 26.6941 50.733 25.7799 46.797C25.0476 43.645 23.3758 40.8767 21.2096 38.5378C26.7595 32.5438 31.642 25.8281 34.2459 18.0614C35.8165 13.3759 36.9829 7.55805 33.8672 3.23187ZM18.2873 7.86918C14.6127 9.22372 10.9382 11.4983 8.37078 14.5003C7.48978 15.531 6.69743 17.1339 6.81067 18.5319C6.85372 19.0653 7.0643 19.5487 7.48747 19.8928C7.78962 20.1384 8.1408 20.2164 8.49165 20.2943C8.86432 20.377 9.2366 20.4597 9.54935 20.7431C11.1825 22.2231 11.2247 25.7045 10.8512 27.6653C10.4275 29.889 9.36706 31.992 7.86386 33.6818C7.65242 33.9195 7.93347 34.3569 8.22492 34.15C11.3137 31.9551 12.749 28.1705 12.303 24.4215C12.1098 22.7962 11.6259 20.8666 10.2455 19.8399C9.99643 19.6546 9.62357 19.5304 9.2408 19.4029C8.56925 19.1792 7.86724 18.9453 7.75004 18.3538C7.53831 17.2852 8.5574 15.7589 9.22005 15.017C10.2316 13.8833 11.4399 12.8031 12.7658 11.84C13.0188 11.7128 13.2767 11.5744 13.5384 11.4339C15.0842 10.6042 16.7674 9.70067 18.4245 10.5826C20.0663 11.4564 20.7986 13.5138 21.1493 15.2231C21.5378 17.1154 21.4887 19.1101 21.0658 20.9912C20.8157 22.1038 20.3748 23.1176 19.9323 24.1348C19.6722 24.7329 19.4115 25.332 19.1888 25.9535C19.0978 26.2076 19.4439 26.3698 19.6189 26.2042C22.8127 23.1779 22.9598 16.9391 21.5181 13.0818C20.915 11.4676 19.8318 9.87081 18.0891 9.3813C17.8401 9.31135 17.59 9.27056 17.3404 9.2486C18.6824 8.68855 20.0583 8.28147 21.4167 8.08342C23.8955 7.72173 26.4831 8.33642 27.7745 10.6769C29.1703 13.207 28.3298 16.0471 27.3655 18.5614C27.3328 18.6472 27.4729 18.7059 27.5139 18.6241C29.0022 15.6678 30.3723 11.3589 27.7054 8.60645C25.2894 6.1133 21.1972 6.79652 18.2873 7.86918ZM10.06 63.3854C10.1791 63.432 10.2879 63.4533 10.3847 63.4533C10.7992 63.4533 10.9896 63.0612 10.7767 62.5898C10.7247 62.4745 10.658 62.3669 10.5797 62.2682C10.3116 61.9302 9.90724 61.6966 9.4884 61.6136C9.41531 61.5993 9.3324 61.5906 9.24778 61.5906C8.95228 61.5906 8.63424 61.6969 8.63165 62.0401C8.62701 62.5987 9.61115 63.2094 10.06 63.3854ZM72.3837 38.1926C72.0663 38.5738 71.6961 38.9761 71.273 39.3996C70.8711 39.8231 70.4268 40.2149 69.9402 40.5749C69.4748 40.9348 68.9776 41.2419 68.4486 41.496C67.9408 41.7289 67.412 41.8456 66.8619 41.8456C65.7406 41.8456 65.1799 41.3054 65.1799 40.2255C65.1799 39.7808 65.3597 39.1986 65.7195 38.4784C66.1002 37.7373 66.5868 36.9644 67.1793 36.1597C67.7716 35.355 68.4276 34.582 69.1468 33.8408C69.8661 33.0786 70.5853 32.4538 71.3048 31.9668C72.0241 31.4585 72.6798 31.1408 73.2724 31.0138C73.8859 30.8867 74.3831 31.0669 74.764 31.5539C74.764 32.1255 74.7215 32.6974 74.637 33.2692L74.3831 34.9844L74.1292 36.6361C74.0445 37.1867 74.0022 37.7479 74.0022 38.3197C74.0022 38.4468 74.0129 38.6478 74.0339 38.9232C74.0763 39.1773 74.1292 39.4421 74.1927 39.7173C74.2772 39.9714 74.3831 40.2043 74.51 40.4162C74.637 40.6068 74.8062 40.702 75.0176 40.702C75.5255 40.702 75.9379 40.6384 76.2553 40.5114C76.5939 40.3843 76.8795 40.2362 77.1122 40.0666C77.3661 39.8762 77.5777 39.6644 77.7469 39.4315L78.3182 38.7326C78.5296 38.4997 78.7625 38.2772 79.0162 38.0656C79.2701 37.8537 79.5981 37.6843 80 37.5573V37.6527V37.8114C80 38.3407 79.8414 38.8703 79.524 39.3996C79.2067 39.9079 78.8048 40.3632 78.3182 40.7655C77.8316 41.168 77.2816 41.496 76.668 41.7502C76.0755 41.9831 75.4938 42.0995 74.9225 42.0995C74.436 42.0995 74.0445 41.962 73.7483 41.6866C73.4522 41.4115 73.2089 41.0832 73.0185 40.702C72.8493 40.3207 72.7223 39.9079 72.6376 39.4631C72.5529 38.9973 72.4684 38.5738 72.3837 38.1926ZM72.955 34.0314C73.1666 33.3327 73.2405 32.8561 73.177 32.6022C73.1348 32.348 72.9866 32.2526 72.7329 32.3161C72.479 32.3586 72.151 32.5386 71.7492 32.8561C71.3471 33.1527 70.9133 33.5233 70.448 33.9678C69.9824 34.3916 69.5171 34.868 69.0515 35.3973C68.5862 35.9268 68.1524 36.4349 67.7506 36.9219C67.3485 37.3879 67.0205 37.8114 66.7668 38.1926C66.5129 38.5738 66.3541 38.849 66.2906 39.0184C66.1637 39.5056 66.1426 39.8762 66.2271 40.1301C66.3331 40.3843 66.481 40.5643 66.6715 40.6703C66.8831 40.7549 67.1052 40.7655 67.3379 40.702C67.5918 40.6384 67.8034 40.5432 67.9726 40.4162C68.3323 40.0985 68.7872 39.675 69.3373 39.1454C69.8873 38.5949 70.4161 38.0126 70.924 37.3985C71.4528 36.7844 71.9077 36.181 72.2886 35.5879C72.6694 34.9738 72.8915 34.4551 72.955 34.0314ZM49.3444 53.9477C49.4288 54.8372 49.5346 55.6842 49.6615 56.4889C49.7675 56.8276 49.9367 57.1559 50.1693 57.4736C50.381 57.8123 50.6349 58.1194 50.931 58.3947C51.2272 58.6699 51.5446 58.8818 51.883 59.0301C52.2426 59.1995 52.6025 59.2842 52.9621 59.2842C53.9565 59.3901 55.0141 58.8924 56.1355 57.7913C57.278 56.6901 58.3569 55.0595 59.3726 52.8995C60.4092 50.7607 61.2976 48.1243 62.0381 44.9903C62.7998 41.856 63.297 38.2985 63.5297 34.3174C63.4875 34.042 63.4769 33.7775 63.4981 33.5233C63.5191 33.2479 63.5509 32.9832 63.5932 32.7292C63.6567 32.4538 63.7095 32.1787 63.7518 31.9033C63.7942 31.6279 63.8152 31.3527 63.8152 31.0773C63.8152 30.8234 63.7942 30.6009 63.7518 30.4103C63.7308 30.2197 63.5616 30.1245 63.2442 30.1245C63.0115 30.1245 62.8421 30.188 62.7364 30.3151C62.6306 30.4422 62.5565 30.6009 62.5143 30.7915C62.4718 30.9609 62.4402 31.1408 62.419 31.3315C62.419 31.5221 62.4084 31.6914 62.3874 31.8397C62.3874 31.9668 62.3555 32.1574 62.292 32.4116C62.2285 32.6444 62.1651 32.8986 62.1016 33.1738C62.0594 33.4279 62.0065 33.6714 61.943 33.9045C61.9008 34.1162 61.8689 34.2539 61.8477 34.3174C61.5515 35.2492 61.0968 36.1068 60.4833 36.8903C59.8908 37.6737 59.235 38.3832 58.5157 39.0184C58.431 39.1032 58.3253 39.1986 58.1983 39.3044C58.0714 39.389 57.9232 39.4737 57.754 39.5585C57.6058 39.6431 57.4472 39.7173 57.278 39.7808C57.1086 39.8443 56.9713 39.8762 56.8653 39.8762C56.6749 39.8762 56.5057 39.7914 56.3577 39.6221C56.2096 39.4315 56.0932 39.209 56.0085 38.9551C55.924 38.7009 55.8605 38.4574 55.8181 38.2243C55.7758 37.9704 55.7546 37.7798 55.7546 37.6527V30.1562C55.7546 29.9868 55.6595 29.8916 55.4691 29.8703C55.2786 29.8491 55.1411 29.8387 55.0566 29.8387C54.9296 29.8387 54.718 29.902 54.4218 30.0291C54.1257 30.1351 53.7977 30.2726 53.438 30.4422C53.0784 30.6115 52.6976 30.8021 52.2957 31.0138C51.9148 31.2256 51.5762 31.4375 51.2801 31.6491C51.0023 31.8159 50.7733 31.9826 50.5929 32.1494C50.5333 31.9677 50.4555 31.8009 50.3598 31.6491C50.1059 31.2256 49.6615 31.0138 49.027 31.0138C48.5614 31.0138 48.0326 31.215 47.4403 31.6175C46.8478 32.0197 46.2661 32.4961 45.6948 33.0467C45.1235 33.5762 44.6053 34.1162 44.1397 34.6667C43.6744 35.2173 43.3358 35.6514 43.1243 35.9691V31.5539C43.1243 31.4269 43.0712 31.2998 42.9655 31.1727C42.881 31.0456 42.7645 30.9292 42.6165 30.8234C42.4683 30.6963 42.3097 30.6009 42.1405 30.5374C41.9924 30.4528 41.876 30.4103 41.7913 30.4103C41.5586 30.4103 41.2731 30.4738 40.9345 30.6009C40.6171 30.728 40.2999 30.8867 39.9826 31.0773C39.6864 31.2679 39.4325 31.4585 39.2208 31.6491C38.9882 31.8397 38.8718 32.0197 38.8718 32.1891C38.8718 32.3797 38.9141 32.5492 38.9988 32.6974C39.0833 32.8457 39.2208 32.9196 39.4113 32.9196C39.7287 32.9196 39.9613 32.8986 40.1095 32.8563C40.2575 32.8138 40.3528 32.7715 40.3951 32.7292C40.4585 32.6657 40.5008 32.6022 40.522 32.5386C40.5432 32.4751 40.5855 32.4222 40.649 32.3797C40.7124 32.3161 40.8182 32.2632 40.9663 32.2209C41.1355 32.1787 41.3894 32.1574 41.7278 32.1574V34.6032C41.7491 35.3231 41.7385 36.0114 41.6962 36.668C41.675 37.3244 41.6115 38.002 41.5058 38.7009C41.4211 39.3786 41.2731 40.1408 41.0614 40.988V41.0832C41.0614 41.3586 41.1462 41.6021 41.3153 41.8137C41.5058 42.0043 41.7068 42.0995 41.9183 42.0995C41.9607 42.1843 42.0665 42.0149 42.2356 41.5915C42.4261 41.168 42.6694 40.6174 42.9655 39.9398C43.2617 39.2621 43.6003 38.5103 43.9811 37.6843C44.383 36.8586 44.8274 36.0749 45.3139 35.3338C45.8217 34.5926 46.3718 33.9468 46.9641 33.3962C47.5566 32.8457 48.1912 32.5067 48.8682 32.3797C49.0798 32.3797 49.249 32.4222 49.376 32.5067C49.5029 32.5703 49.6193 32.6551 49.725 32.7609C49.852 32.8667 49.9895 32.9621 50.1377 33.0467C50.1986 33.0816 50.2686 33.1094 50.3476 33.13C50.3786 33.177 50.4144 33.2234 50.4551 33.2692C50.6031 33.4385 50.8041 33.5233 51.058 33.5233C51.2484 33.5233 51.4705 33.4704 51.7244 33.3644C51.9783 33.2373 52.2322 33.0998 52.4861 32.9515C52.761 32.8032 53.0149 32.6444 53.2476 32.4751C53.4803 32.3055 53.6707 32.1787 53.8189 32.0939L54.1044 32.3797C54.1044 32.5915 54.1151 32.9515 54.1363 33.4598C54.1785 33.9468 54.2104 34.4761 54.2314 35.048C54.2736 35.5985 54.3055 36.1278 54.3267 36.6361C54.3477 37.1232 54.369 37.4621 54.3902 37.6527C54.3902 37.9914 54.4324 38.3726 54.5171 38.7961C54.6229 39.2196 54.7604 39.6221 54.9296 40.0033C55.1201 40.3632 55.3527 40.6703 55.6277 40.9244C55.924 41.1784 56.273 41.3054 56.6749 41.3054C57.1827 41.3054 57.6483 41.189 58.0714 40.9561C58.5157 40.7232 58.9282 40.4372 59.3091 40.0985C59.6897 39.7596 60.0389 39.3996 60.3563 39.0184C60.6947 38.6161 61.0121 38.2562 61.3083 37.9385V38.1608V38.5103C61.3295 38.6161 61.3401 38.722 61.3401 38.828V39.0184C61.3401 39.8231 61.2976 40.6278 61.2132 41.4325C61.1497 42.2372 61.0544 43.0419 60.9274 43.8466C60.8217 44.6726 60.7053 45.4667 60.5784 46.2289C60.4514 47.0126 60.3245 47.7537 60.1975 48.4524C60.0706 48.9394 59.8801 49.5113 59.6265 50.1679C59.3726 50.8455 59.0552 51.5548 58.6743 52.296C58.2935 53.0372 57.881 53.7677 57.4366 54.4876C56.9923 55.2288 56.5057 55.8854 55.9769 56.457C55.4691 57.0501 54.9296 57.5265 54.3583 57.8865C53.8083 58.2464 53.2582 58.4264 52.7082 58.4264C52.3061 58.4264 51.9571 58.2677 51.6609 57.95C51.3648 57.6536 51.1109 57.2617 50.8992 56.7747C50.6878 56.2877 50.5186 55.7371 50.3916 55.123C50.2647 54.5301 50.1693 53.9477 50.1059 53.3759C50.0424 52.8043 50.0001 52.2747 49.9789 51.7877C49.9367 51.3219 49.9154 50.962 49.9154 50.7078C49.9154 50.0725 49.9683 49.4371 50.0742 48.802C50.1587 48.1666 50.254 47.5313 50.3598 46.8961C50.4445 46.282 50.5396 45.6679 50.6453 45.0538C50.73 44.4395 50.7723 43.815 50.7723 43.1796V42.9255C50.5186 43.0948 50.3069 43.3702 50.1377 43.7514C49.9683 44.1537 49.8309 44.6091 49.725 45.1171C49.598 45.6467 49.4923 46.1972 49.4078 46.7691C49.3231 47.3619 49.2597 47.9231 49.2174 48.4524C49.1749 49.003 49.1539 49.4902 49.1539 49.9137C49.1327 50.3583 49.1221 50.6759 49.1221 50.8666C49.1856 52.0312 49.2597 53.0584 49.3444 53.9477ZM31.7631 39.3996C32.1862 38.9761 32.5565 38.5738 32.8739 38.1926C32.9586 38.5738 33.043 38.9973 33.1278 39.4631C33.2125 39.9079 33.3394 40.3207 33.5086 40.702C33.699 41.0832 33.9423 41.4115 34.2385 41.6866C34.5346 41.962 34.9261 42.0995 35.4127 42.0995C35.984 42.0995 36.5657 41.9831 37.1582 41.7502C37.7717 41.496 38.3218 41.168 38.8084 40.7655C39.2949 40.3632 39.6968 39.9079 40.0142 39.3996C40.3316 38.8703 40.4902 38.3407 40.4902 37.8114V37.6527V37.5573C40.0883 37.6843 39.7603 37.8537 39.5064 38.0656C39.2527 38.2772 39.0198 38.4997 38.8084 38.7326L38.2371 39.4315C38.0679 39.6644 37.8562 39.8762 37.6023 40.0666C37.3696 40.2362 37.0841 40.3843 36.7455 40.5114C36.4281 40.6384 36.0156 40.702 35.5078 40.702C35.2964 40.702 35.1272 40.6068 35.0002 40.4162C34.8733 40.2043 34.7673 39.9714 34.6828 39.7173C34.6193 39.4421 34.5665 39.1773 34.524 38.9232C34.503 38.6478 34.4924 38.4468 34.4924 38.3197C34.4924 37.7479 34.5346 37.1867 34.6193 36.6361L34.8732 34.9844L35.1272 33.2692C35.2116 32.6974 35.2541 32.1255 35.2541 31.5539C34.8733 31.0669 34.3761 30.8867 33.7625 31.0138C33.17 31.1408 32.5142 31.4585 31.795 31.9668C31.0755 32.4538 30.3562 33.0786 29.637 33.8408C28.9175 34.582 28.2617 35.355 27.6694 36.1597C27.0769 36.9644 26.5903 37.7373 26.2095 38.4784C25.8499 39.1986 25.67 39.7808 25.67 40.2255C25.67 41.3054 26.2307 41.8456 27.3521 41.8456C27.9021 41.8456 28.4309 41.7289 28.9387 41.496C29.4678 41.2419 29.9648 40.9348 30.4303 40.5749C30.9169 40.2149 31.3613 39.8231 31.7631 39.3996ZM33.6672 32.6022C33.7307 32.8561 33.6566 33.3327 33.4451 34.0314C33.3817 34.4551 33.1596 34.9738 32.7787 35.5879C32.3979 36.181 31.9429 36.7844 31.4141 37.3985C30.9063 38.0126 30.3775 38.5949 29.8274 39.1454C29.2774 39.675 28.8224 40.0985 28.4628 40.4162C28.2936 40.5432 28.0819 40.6384 27.828 40.702C27.5953 40.7655 27.3733 40.7549 27.1616 40.6703C26.9712 40.5643 26.823 40.3843 26.7173 40.1301C26.6328 39.8762 26.6538 39.5056 26.7808 39.0184C26.8442 38.849 27.003 38.5738 27.2567 38.1926C27.5106 37.8114 27.8386 37.3879 28.2405 36.9219C28.6426 36.4349 29.0763 35.9268 29.5417 35.3973C30.0072 34.868 30.4726 34.3916 30.9381 33.9678C31.4035 33.5233 31.8372 33.1527 32.2391 32.8561C32.6412 32.5386 32.9692 32.3586 33.2231 32.3161C33.4768 32.2526 33.625 32.348 33.6672 32.6022Z" fill="white"/>
</svg>
